<?xml version="1.0" encoding="UTF-8"?>
<svg id="Layer_2" data-name="Layer 2" xmlns="http://www.w3.org/2000/svg" xmlns:xlink="http://www.w3.org/1999/xlink" viewBox="0 0 413.92 143.22">
  <defs>
    <style>
      .cls-1 {
        letter-spacing: -.02em;
      }

      .cls-2 {
        clip-path: url(#clippath);
      }

      .cls-3 {
        fill: url(#GradientFill_1);
        fill-rule: evenodd;
      }

      .cls-3, .cls-4, .cls-5, .cls-6, .cls-7, .cls-8, .cls-9, .cls-10, .cls-11, .cls-12, .cls-13, .cls-14, .cls-15, .cls-16, .cls-17, .cls-18, .cls-19, .cls-20 {
        stroke-width: 0px;
      }

      .cls-4 {
        clip-rule: evenodd;
        fill: none;
      }

      .cls-21 {
        fill: #273238;
        font-family: ArialMT, Arial;
        font-size: 25.11px;
      }

      .cls-5 {
        fill: #7a75b4;
      }

      .cls-6 {
        fill: #964b80;
      }

      .cls-7 {
        fill: #718ec7;
      }

      .cls-8 {
        fill: #954c8e;
      }

      .cls-9 {
        fill: #3c81c2;
      }

      .cls-10 {
        fill: #06c1f2;
      }

      .cls-11 {
        fill: #0ea7d4;
      }

      .cls-12 {
        fill: #d4549d;
      }

      .cls-13 {
        fill: #bf3188;
      }

      .cls-14 {
        fill: #ab5392;
      }

      .cls-15 {
        fill: #b567a7;
      }

      .cls-16 {
        fill: #3078bb;
      }

      .cls-17 {
        fill: #a13a6b;
      }

      .cls-18 {
        fill: #eb268e;
      }

      .cls-19 {
        fill: #6982c0;
      }

      .cls-20 {
        fill: #0097d9;
      }
    </style>
    <linearGradient id="GradientFill_1" data-name="GradientFill 1" x1="278.01" y1="115.41" x2="262.05" y2="53.71" gradientUnits="userSpaceOnUse">
      <stop offset="0" stop-color="#3384bd"/>
      <stop offset="1" stop-color="#b23e8f"/>
    </linearGradient>
    <clipPath id="clippath">
      <path class="cls-4" d="m37.78,21.75h51.05c13.13,0,23.86,9.96,23.86,22.13v31.35c0,12.17-10.74,22.13-23.86,22.13h-51.05V21.75h0Zm18.89,19.2v37.22h25.86c6.19,0,11.27-5.46,11.27-11.2v-14.81c0-5.74-5.07-11.2-11.27-11.2h-25.86Z"/>
    </clipPath>
  </defs>
  <g id="Layer_1-2" data-name="Layer 1">
    <g>
      <path class="cls-3" d="m120.41,34.84v-15.04h16.11v15.04h-16.11Zm0,64v-56.9h16.11v56.9h-16.11Zm61.11-7.62c-4.1,4.8-9.31,7.62-15.89,7.62-7.79,0-13.89-3.36-18.3-9.75-3.86-5.6-5.26-12.25-5.26-18.96,0-7.73,1.53-15.88,6.9-21.76,4.62-5.06,10.39-7.59,17.24-7.59s12.02,2.77,16.21,7.64v-6.47h15.15v50.42c0,4.59-.19,10.49-1.66,14.88-.98,2.95-2.45,5.77-4.73,7.92-2.26,2.14-5.14,3.55-8.08,4.49-3.95,1.26-8.43,1.6-12.56,1.6-6.47,0-15.24-.72-20.46-5.01-4.05-3.33-6.16-7.6-6.16-12.85,0-.61.02-1.21.05-1.82l.04-.8,18.12,2.19.08.56c.17,1.23.58,2.8,1.63,3.58,1.62,1.21,4.19,1.44,6.14,1.44,2.59,0,5.96-.25,8.23-1.62,1.27-.76,2.09-1.96,2.61-3.33.61-1.61.63-4.74.63-6.47l.05-5.92h0Zm24.39-56.38v-15.04h16.11v15.04h-16.11Zm0,64v-56.9h16.11v56.9h-16.11Zm41.73-43.77v21.69c0,1.79,0,3.59.07,5.38.02.64.03,1.78.19,2.39.16.62.51,1.08,1.03,1.45.6.43,1.31.59,2.04.59,1.74,0,4.04-.77,5.65-1.36l.89-.33,1.39,12.88-.51.22c-3.75,1.61-7.78,2.25-11.84,2.25-2.55,0-5.06-.4-7.41-1.39-1.92-.81-3.76-1.98-4.97-3.71-1.22-1.75-1.84-3.96-2.19-6.05-.21-1.28-.29-2.67-.35-3.96-.1-2.17-.12-4.36-.12-6.53v-23.51h-6.72v-13.13h6.72v-10.68l16.11-9.53v20.2h10.03v13.13h-10.03Zm46.11,38.4c.05.19.1.37.14.54.43,1.47.88,2.94,1.43,4.35l.18.47h16.22l-.52-1.07c-1.12-2.29-2.05-4.74-2.56-7.24-.65-3.27-.68-7.29-.68-10.62l.21-17.07c0-3.82-.18-10.06-2.05-13.48-1.55-2.85-4.21-4.81-7.07-6.2-4.23-2.05-10.31-2.39-14.93-2.39-5.52,0-12.07.74-16.69,4.03-4.22,3.01-6.65,7.51-8.01,12.42l-.22.79,14.67,2.6.21-.6c.64-1.84,1.65-3.96,3.29-5.12,1.61-1.14,3.75-1.43,5.67-1.43,2.1,0,5.74.17,7.41,1.63,1.52,1.32,1.83,3.65,1.83,5.54v.98c-1.59.62-3.34,1.09-4.97,1.5-2.85.72-5.75,1.31-8.64,1.86-3.86.73-8.26,1.76-11.82,3.48-2.77,1.33-4.99,3.29-6.59,5.91-1.63,2.67-2.35,5.63-2.35,8.75,0,4.81,1.63,8.96,5.14,12.27,3.82,3.6,8.8,4.85,13.94,4.85,3.26,0,6.4-.62,9.39-1.91,2.73-1.18,5.18-2.84,7.37-4.84h0Zm22.69,5.37V19.79h16.11v79.04h-16.11Zm24.97-64v-15.04h16.11v15.04h-16.11Zm0,64v-56.9h16.11v56.9h-16.11Zm48.77-43.46c-1.62.07-3.24.11-4.86.11l-20.28.11v-13.66h47.29v11.38l-21.35,24.6-6.21,6.73c1.92-.11,3.88-.22,5.77-.22h23.39v14.4h-50.92v-12.55l20.91-23.96c2.03-2.32,4.11-4.7,6.26-6.94h0Zm-231.56,13.89c0,4.04.53,9.18,3.22,12.41,2.05,2.46,4.63,3.82,7.85,3.82,3.43,0,6.22-1.39,8.48-3.95,2.82-3.19,3.52-7.8,3.52-11.91s-.61-9.03-3.37-12.28c-2.2-2.6-4.98-3.9-8.38-3.9s-5.98,1.29-8.09,3.83c-2.65,3.18-3.22,7.99-3.22,11.98h0Zm133.66,3.37v1.9c0,1.93,0,5.07-.54,6.93-.54,1.86-1.69,3.31-3.22,4.47-2.11,1.52-4.48,2.45-7.11,2.45-2.04,0-3.85-.59-5.32-2.03-1.36-1.33-2.07-2.89-2.07-4.79s.97-3.42,2.55-4.55c1.72-1.13,5.68-1.99,7.7-2.43,2.62-.56,5.42-1.16,8.02-1.95Z"/>
      <text class="cls-21" transform="translate(207.88 135.06)"><tspan x="0" y="0">The I</tspan><tspan class="cls-1" x="57.22" y="0">T</tspan><tspan x="72.1" y="0" xml:space="preserve"> Specialist</tspan></text>
      <g>
        <g class="cls-2">
          <g>
            <rect class="cls-20" x="37.42" y="21.75" width="18.89" height="18.9"/>
            <rect class="cls-11" x="37.42" y="40.66" width="18.89" height="18.9"/>
            <rect class="cls-16" x="37.42" y="59.56" width="18.89" height="18.9"/>
            <rect class="cls-7" x="37.42" y="78.47" width="18.89" height="18.9"/>
            <rect class="cls-19" x="56.31" y="21.75" width="18.89" height="18.9"/>
            <rect class="cls-5" x="56.31" y="78.47" width="18.89" height="18.9"/>
            <rect class="cls-15" x="94.1" y="21.75" width="18.89" height="18.9"/>
            <rect class="cls-6" x="94.1" y="78.47" width="18.89" height="18.9"/>
            <rect class="cls-8" x="75.2" y="21.75" width="18.89" height="18.9"/>
            <rect class="cls-13" x="75.2" y="59.56" width="18.89" height="18.9"/>
            <rect class="cls-17" x="94.1" y="59.56" width="18.89" height="18.9"/>
            <rect class="cls-12" x="75.2" y="40.66" width="18.89" height="18.9"/>
            <rect class="cls-18" x="94.1" y="40.66" width="18.89" height="18.9"/>
            <rect class="cls-14" x="75.2" y="78.47" width="18.89" height="18.9"/>
          </g>
        </g>
        <rect class="cls-9" x="12.18" y="30.45" width="9.94" height="9.94"/>
        <rect class="cls-20" x="17.75" width="17.15" height="17.15"/>
        <rect class="cls-10" y="18.77" width="7.95" height="7.96"/>
      </g>
    </g>
  </g>
</svg>